<svg xmlns="http://www.w3.org/2000/svg" xml:space="preserve" width="2000" height="1500" data-id="lg_duuvGhRLIGiRolOiWZ" data-version="1" viewBox="0 0 2000 1500"><path fill="#0074d9" stroke="transparent" d="M0 0h2000v1500H0z"/><g data-padding="20"><g transform="translate(-1349.684 -1010.116)scale(2.28925)"><rect width="560" height="271.132" x="343.667" y="233.178" fill="none" rx="0" ry="0" transform="translate(400.5 501.69)"/><path fill="#ffff01" d="M823.237 848.284h-21.99q.82-3.97.82-6.33 0-2.37-.09-3.56-.1-1.2-.25-2.55-.16-1.36-.38-3.03t-.41-3.87q-1.45-15.06-10.27-24.76-3.9-4.28-8.44-6.52-4.53-2.23-7.46-2.23t-4.51.38q-3.52 10.58-3.52 22.11 0 10.2 1.07 15.24 1.7 7.56 5.23 15.18h-18.84q1.51-3.78 1.51-15.91 0-12.12 1.83-22.67t4.76-18.8q2.93-8.26 6.55-14.46t7.24-10.83 6.83-7.94q3.22-3.31 5.36-5.83h19.84q-2.71 3.09-2.71 8.63 0 2.52.82 8.25l1.58 11.47q8.62 59.46 15.43 68.03m-50.39-59.15q2.45-.95 5.16-.95t4.88.38q2.18.38 4.32 1.26 4.6 1.77 7.68 5.61-3.08-16.19-3.78-19.78l-2.2-11.02-3.59 4.28q-7.56 9.07-12.47 20.22m109.41-41.64q1.82 2.59 1.82 7.91t-.34 8.63q-.35 3.31-1.04 6.39-1.51 6.93-4.22 10.46-2.33-12.16-6.05-17.39-3.9-5.29-10.17-5.29t-9.8 2.4q-3.52 2.39-5.41 6.29-3.15 6.49-3.15 19.12t2.86 23.12q2.87 10.49 8.16 18.04 11.15 16.07 29.04 16.07-.25 2.83-2.96 4.91-.82.63-1.77.76-22.86 0-37.29-16.82-15.3-17.89-15.3-48.76 0-16.12 9.45-24.25 8.37-7.18 22.92-7.18l10.52.13q7.44 0 10.46-2.14 1.26-.95 2.27-2.4m78.73 100.79h-21.98q.82-3.97.82-6.33 0-2.37-.1-3.56-.09-1.2-.25-2.55-.16-1.36-.38-3.03t-.41-3.87q-1.44-15.06-10.26-24.76-3.91-4.28-8.44-6.52-4.54-2.23-7.47-2.23t-4.5.38q-3.53 10.58-3.53 22.11 0 10.2 1.07 15.24 1.7 7.56 5.23 15.18h-18.83q1.51-3.78 1.51-15.91 0-12.12 1.83-22.67 1.82-10.55 4.75-18.8 2.93-8.26 6.55-14.46t7.25-10.83q3.62-4.63 6.83-7.94t5.35-5.83h19.85q-2.71 3.09-2.71 8.63 0 2.52.82 8.25l1.57 11.47q8.63 59.46 15.43 68.03m-50.39-59.15q2.46-.95 5.17-.95t4.88.38 4.31 1.26q4.6 1.77 7.69 5.61-3.09-16.19-3.78-19.78l-2.21-11.02-3.59 4.28q-7.55 9.07-12.47 20.22m75.21-20.28.06 62.73q.07 3.59.82 5.42.76 1.83 3.15 1.83 11.21 0 17.45-14.24 6.05-13.86 6.05-38.42 0-12.91-3.03-19.59-4.09-9.01-14.23-9.01-6.49 0-7.97 1.51-1.48 1.52-1.89 3.75-.41 2.24-.41 6.02m-17.51 79.43q2.02-4.79 2.36-8 .35-3.22.6-6.87.5-7.43.5-19.97 0-15.18-.5-27.71l-.69-17.32q-.25-6.55-1.14-9.14-1.38-4.09-4.53-7.37h34.58q21.54 0 28.15 16.95 2.33 5.98 2.33 14.48 0 47.56-32.25 60.6-10.89 4.41-25.63 4.41h-1.89q-.95 0-1.89-.06m125.16-23.31q1.7 2.33 1.7 6.74t-.38 7.02q-.38 2.62-1.2 4.76-1.89 4.79-4.97 4.79h-51.02q4.85-2.59 6.42-4.98 2.96-4.47 2.96-11.34-.06-16.82-.06-30.42v-33.13q0-9.39-2.96-13.61-1.14-1.51-2.71-2.9h47.37q4.28 1.52 5.85 10.59.45 2.52.45 4.91 0 4.91-1.45 7.81l-3.4-6.8q-3.41-6.68-9.77-8.95-3.52-1.26-7.93-1.26t-6.3.29q-1.89.28-2.9 1.35-1.64 1.83-1.64 6.96t.25 7.12q.26 1.98 1.2 3.24 1.95 2.46 8.25 2.46h19.78q-1.45 3.65-2.96 5.16-3.02 3.03-8.19 3.03-2.01 0-3.84-.44-3.4-.82-5.98-.82-2.59 0-4.26.47t-2.61 1.48q-1.64 1.76-1.64 6.36v30.05q0 11.84 1.32 14.04 1.33 2.21 3.22 2.62t6.3.41 8-1.26 6.01-3.53q2.43-2.27 4-5.39 1.58-3.11 3.09-6.83m38.62-15.37-11.78-35.84q-.25 9.2-.25 19.02 0 13.42.44 28.91.44 15.5.66 17.61t.6 3.68q.69 2.9 2.27 5.3h-17.58q2.4-3.41 2.87-7.31.47-3.91.72-7.56.51-7.43.51-19.97 0-15.18-.51-27.71l-.69-17.32q-.38-9.58-3.09-13.61-1-1.51-2.58-2.9h24.63q2.46 10.77 6.11 22.87l11.46 36.59 17.58-59.46h24.56q-3.08 2.71-4.03 5.55-1.38 4.34-1.57 10.07l-.44 11.15q-.82 19.59-.82 34.77 0 25.45 2.33 32.32.44 1.26 1.13 2.52h-19.84q1.7-3.34 1.92-7.22.22-3.87.41-10.67.76-22.36.76-32.57 0-16.82-.32-25l-23.18 75.46Zm70.09-57.7h21.74q-2.33 5.86-2.71 11.75t-.57 10.11-.31 8.76q-.19 10.58-.19 19.27 0 35.65 2.64 43.71.44 1.39 1.14 2.78h-21.74q1.96-4.29 2.34-7.75.37-3.47.69-8.25.75-9.89.75-22.81 0-12.91-.06-17.66-.06-4.76-.19-9.29-.44-22.11-2.64-28.1Zm90.83-4.41q1.83 2.59 1.83 7.91t-.35 8.63q-.34 3.31-1.04 6.39-1.51 6.93-4.22 10.46-2.33-12.16-6.04-17.39-3.91-5.29-10.17-5.29-6.27 0-9.8 2.4-3.53 2.39-5.42 6.29-3.15 6.49-3.15 19.12t2.87 23.12 8.16 18.04q11.15 16.07 29.03 16.07-.25 2.83-2.96 4.91-.81.63-1.76.76-22.86 0-37.29-16.82-15.3-17.89-15.3-48.76 0-16.12 9.44-24.25 8.38-7.18 22.93-7.18l10.52.13q7.43 0 10.46-2.14 1.26-.95 2.26-2.4m-489.35 125.36q1.82 2.58 1.82 7.9t-.34 8.63q-.35 3.31-1.04 6.39-1.52 6.93-4.22 10.46-2.33-12.16-6.05-17.38-3.91-5.3-10.17-5.3-6.27 0-9.8 2.4-3.53 2.39-5.41 6.3-3.15 6.48-3.15 19.11t2.86 23.12q2.87 10.49 8.16 18.05 11.15 16.06 29.04 16.06-.26 2.83-2.96 4.91-.82.63-1.77.76-22.86 0-37.29-16.82-15.3-17.89-15.3-48.75 0-16.13 9.45-24.25 8.37-7.18 22.92-7.18l10.52.12q7.43 0 10.46-2.14 1.26-.94 2.27-2.39m78.74 100.78h-21.98q.82-3.97.82-6.33t-.1-3.56q-.09-1.2-.25-2.55-.16-1.36-.38-3.03-.22-1.66-.41-3.87-1.45-15.05-10.26-24.75-3.91-4.29-8.44-6.52-4.54-2.24-7.47-2.24t-4.5.38q-3.53 10.58-3.53 22.11 0 10.2 1.07 15.24 1.7 7.56 5.23 15.18h-18.83q1.51-3.78 1.51-15.9 0-12.13 1.82-22.68 1.83-10.55 4.76-18.8t6.55-14.46q3.62-6.2 7.24-10.83 3.63-4.63 6.84-7.94 3.21-3.3 5.35-5.82h19.84q-2.7 3.08-2.7 8.63 0 2.51.81 8.25l1.58 11.46q8.63 59.46 15.43 68.03m-50.39-59.15q2.46-.94 5.17-.94 2.7 0 4.88.37 2.17.38 4.31 1.26 4.6 1.77 7.69 5.61-3.09-16.19-3.78-19.78l-2.21-11.02-3.59 4.28q-7.56 9.07-12.47 20.22m107.71 35.85q1.7 2.46 1.7 5.92 0 3.47-.47 5.99t-1.29 4.78q-1.89 4.98-4.79 6.62h-50.64q4.97-3.09 6.49-5.36 2.89-4.28 2.89-11.08-.06-16.76-.06-30.3v-33.01q0-9.13-3.02-13.41-1.07-1.58-2.65-3.21h25.89q-3.72 5.35-4.22 11.02-.13 1.89-.13 4.16v57.69q0 11.78 1.26 14.08t3.03 2.71q1.76.41 5.35.41t6.8-1.26q3.22-1.26 5.73-3.53 4.29-3.9 8.13-12.22m57.32 0q1.7 2.33 1.7 6.74t-.38 7.03q-.38 2.61-1.19 4.75-1.89 4.79-4.98 4.79h-51.02q4.85-2.58 6.42-4.98 2.96-4.47 2.96-11.34-.06-16.81-.06-30.42v-33.13q0-9.39-2.96-13.61-1.13-1.51-2.71-2.89h47.37q4.28 1.51 5.86 10.58.44 2.52.44 4.91 0 4.91-1.45 7.81l-3.4-6.8q-3.4-6.68-9.77-8.95-3.52-1.26-7.93-1.26t-6.3.29q-1.89.28-2.9 1.35-1.64 1.83-1.64 6.96 0 5.14.26 7.12.25 1.98 1.19 3.24 1.96 2.46 8.25 2.46h19.78q-1.45 3.65-2.96 5.17-3.02 3.02-8.19 3.02-2.01 0-3.84-.44-3.4-.82-5.98-.82t-4.25.47-2.62 1.48q-1.64 1.77-1.64 6.36v30.05q0 11.84 1.33 14.05 1.32 2.2 3.21 2.61t6.3.41 8-1.26 6.01-3.53q2.43-2.27 4-5.38 1.58-3.12 3.09-6.84m46.35-10.71-19.02-34.58q-.13 6.55-.13 14.93 0 11.91.44 27.24.44 15.34.69 17.45.26 2.11.63 3.69.63 2.58 1.96 5.29h-16.88q1.89-3.84 2.29-7.53.41-3.68.67-7.34.5-7.43.5-19.96 0-15.18-.5-27.72l-.7-17.32q-.37-9.58-3.02-13.61-1.07-1.51-2.65-2.89h19.59q3.72 8.56 7.88 17l8.56 16.76 18.4 33.82q.06-3.97.06-8.5v-9.83q0-31.49-3.84-45.47-.76-2.59-1.64-3.78l18.96-.07q-3.15 6.3-3.97 35.47-.13 4.53-.13 8.69l.07 5.29v25.7q0 16.31.25 21.29h-10.2Zm62.93-45.42.07 62.74q.06 3.59.82 5.41.75 1.83 3.15 1.83 11.21 0 17.44-14.24 6.05-13.85 6.05-38.42 0-12.91-3.02-19.59-4.1-9.01-14.24-9.01-6.49 0-7.97 1.52-1.48 1.51-1.89 3.74-.41 2.24-.41 6.02m-17.51 79.43q2.02-4.79 2.37-8 .34-3.21.59-6.87.51-7.43.51-19.96 0-15.18-.51-27.72l-.69-17.32q-.25-6.55-1.13-9.13-1.39-4.1-4.54-7.37h34.58q21.54 0 28.16 16.94 2.33 5.98 2.33 14.49 0 47.55-32.25 60.59-10.9 4.41-25.64 4.41h-1.89q-.94 0-1.89-.06m141.03 0h-21.98q.82-3.97.82-6.33t-.09-3.56q-.1-1.2-.26-2.55-.15-1.36-.37-3.03-.22-1.66-.41-3.87-1.45-15.05-10.27-24.75-3.91-4.29-8.44-6.52-4.54-2.24-7.47-2.24-2.92 0-4.5.38-3.53 10.58-3.53 22.11 0 10.2 1.07 15.24 1.71 7.56 5.23 15.18h-18.83q1.51-3.78 1.51-15.9 0-12.13 1.83-22.68 1.82-10.55 4.75-18.8t6.55-14.46q3.63-6.2 7.25-10.83t6.83-7.94q3.21-3.3 5.36-5.82h19.84q-2.71 3.08-2.71 8.63 0 2.51.82 8.25l1.57 11.46q8.63 59.46 15.43 68.03m-50.39-59.15q2.46-.94 5.17-.94t4.88.37q2.17.38 4.31 1.26 4.6 1.77 7.69 5.61-3.09-16.19-3.78-19.78l-2.2-11.02-3.59 4.28q-7.56 9.07-12.48 20.22m84.41-.68q-7.31 0-7.31 8.63 0 35.78 1.2 42.14.69 3.84 1.76 5.73l1.89 3.34h-22.36q2.02-4.79 2.36-8 .35-3.21.6-6.87.5-7.43.5-19.96 0-15.18-.5-27.72l-.69-17.32q-.25-6.55-1.14-9.13-1.38-4.1-4.53-7.37h33.32q15.24 0 22.05 3.02 7.18 3.15 7.18 10.77 0 6.68-4.98 12.53-4.66 5.42-12.22 8.63.95 24.19 15.18 46.43 6.11 9.63 12.47 14.99h-23.62q-6.17-8.44-11.4-34.2-1.76-8.95-2.3-14.87-.53-5.92-.88-7.15t-1.1-1.98q-1.51-1.64-5.48-1.64m14.52-11.24q1.73-1.86 2.45-4 .73-2.15.73-4.13t-.54-3.97q-.53-1.98-2.11-3.49-3.46-3.41-12.09-3.41-3.21 0-5.2.26-1.98.25-3.12 1.38-1.95 1.89-1.95 9.64 0 6.8 1.45 8.69 2.58 3.34 7.81 3.34t8.03-1.23 4.54-3.08m-187.704-286.163c-.772-.386-1.544-.772-2.316-.965-.386-.193-1.35-.386-2.702-.386-3.86-17.949-14.089-29.143-16.019-31.073v-18.335l5.018-2.509 5.983-3.667c.386-.193.58-.579.386-.965 0-.386-.193-.772-.579-.772l-57.707-25.862a.58.58 0 0 0-.772 0l-57.514 25.862c-.386.193-.579.386-.579.772s.193.772.386.965l2.316 1.544 4.825 2.51v16.597l-7.527 16.212c-.193.193-.193.386 0 .772v.193c0 .386 0 .58.193.772s.386.386.772.386h3.474c-1.737 4.246-4.246 11.773-5.597 18.528h-1.158c-2.123 0-3.474.58-3.474.58q-5.21 2.026-7.527 6.947c-2.702 6.176-1.93 15.44 2.895 27.792 7.72 20.651 20.265 22.967 22.967 23.353 4.053 5.211 10.036 10.808 13.896 13.51-1.158 1.351-1.737 3.474-1.544 5.983.193 4.246 2.702 9.264 8.878 10.422h.193c.772 0 1.93-.386 2.702-1.158q1.448.868 2.895 1.158h.386c.58 0 1.544-.579 2.123-1.35.772.578 1.737.771 2.316.771h.58c1.35-.193 3.087-1.158 3.666-4.439 1.351-.965 3.088-2.509 4.053-4.246 2.123.193 7.141.193 11.194.193h4.053c.965 1.737 2.702 2.895 3.86 3.86.772 3.088 2.316 4.053 3.667 4.44h.58c.578 0 1.35-.194 2.315-.773.772.965 1.544 1.351 2.123 1.351h.386q1.447-.29 2.895-1.158c.772.772 1.93 1.158 2.702 1.158h.193c6.176-1.158 8.685-6.176 8.878-10.422.193-2.509-.386-4.632-1.544-5.983 4.44-3.088 11.773-10.229 14.668-14.475 2.51-.386 14.861-3.474 21.81-24.318 7.14-22.195 1.93-30.494-3.668-33.775m-23.16-40.337-43.425 23.16-50.566-25.09v-9.65l49.408 25.09c.193 0 .386.193.386.193.193 0 .386 0 .386-.193l43.811-22.774Zm-99.974-16.79-.579-.58 55.391-25.09 55.391 25.09-4.246 2.702-5.21 2.702c-.194 0-.387.193-.387.193l-44.583 23.353-47.67-24.318 46.705-4.825c.58 0 .965-.579.965-1.158s-.579-.965-1.158-.965l-49.6 5.211Zm4.825 23.738 6.37 13.51h-12.739Zm-17.37 68.515c-4.439-11.773-5.404-20.65-2.895-26.248 1.351-2.895 3.474-4.825 6.562-5.983 0 0 1.158-.386 2.702-.386.58 0 1.158 0 1.737.193 4.632.772 11.58 5.018 16.405 21.423 6.176 21.037-1.737 31.266-3.474 33.003-2.123-.193-13.703-2.895-21.037-22.002m42.46 51.917c-6.369-1.35-7.14-6.755-7.14-8.492-.194-2.895.771-4.825 1.543-5.018.58-.193.965-.193 1.351-.193.965 0 1.737.386 2.51.772 0 1.93.385 7.913 3.087 12.352-.386.386-.965.58-1.35.58m5.596 0c-.772-.194-1.737-.58-2.316-1.352-2.895-4.246-3.088-11-3.088-12.159a3 3 0 0 1 1.158-1.544c1.737-.772 3.088-.386 4.246.58.193 1.736.772 9.07 1.158 12.93-.193 1.158-.772 1.351-1.158 1.544m5.018-.579c-.579.193-1.35-.193-1.93-.965-.386-4.053-.965-11.58-1.158-12.93.193-.58.58-1.159 1.158-1.352.386-.193.772-.193.965-.193.965 0 1.737.772 2.123 1.351.193.58 1.737 4.825.965 10.808-.386 2.895-1.737 3.088-2.123 3.281m4.44-5.21a27.6 27.6 0 0 0-.773-8.107c1.544.193 3.474.965 3.474 3.281.193 1.737-1.158 3.474-2.702 4.825m4.632-3.474c.193-.579.193-.965.193-1.544-.193-3.474-3.474-5.018-6.369-5.21-1.35-1.93-3.28-2.51-5.21-1.545-.58.193-1.159.772-1.738 1.351-.579-.386-1.544-.772-2.509-.965-2.702-3.474-7.334-9.65-6.755-20.458.965-14.86 13.51-25.669 29.53-25.669s28.37 10.808 29.528 25.67c.772 10.035-3.86 15.825-6.948 19.492l-.386.58c-.965.192-1.93.385-2.509.964-.386-.772-.965-1.158-1.737-1.35-1.93-.773-3.86-.194-5.21 1.543-3.089.193-6.177 1.544-6.37 5.211 0 .772 0 1.351.193 2.123-3.667 0-10.615-.193-13.703-.193m15.826.58c-.386-.773-.579-1.545-.579-2.51.193-2.123 1.93-2.895 3.474-3.28-.579 1.543-.965 4.245-.772 8.105-.772-.579-1.544-1.35-2.123-2.316m6.562 7.72c-.386 0-1.737-.386-2.316-3.088-1.158-7.14.772-10.615.965-10.808.386-.772 1.158-1.544 2.123-1.544.386 0 .58 0 .965.193.58.193.965.772 1.158 1.351l-1.158 12.931c-.579.772-1.158 1.158-1.737.965m5.018.58c-.193 0-.772-.387-1.158-1.159l1.158-12.93c1.158-.966 2.702-1.352 4.246-.58.58.193.965.965 1.158 1.351-.386 3.86-1.35 10.615-2.895 11.966-.965.772-1.737 1.158-2.509 1.351m12.738-8.492c0 1.737-.965 7.334-7.14 8.492-.194 0-.773-.193-1.159-.579 2.123-2.895 2.895-10.229 2.895-12.352.58-.386 1.351-.772 2.51-.772.385 0 .964 0 1.35.193.772.193 1.737 2.123 1.544 5.018m-1.544-6.948c-.579-.193-.965-.193-1.544-.193-1.158 0-2.123.386-2.895.772-.386-.772-1.158-1.35-1.93-1.737-.193-.193-.579-.193-.772-.193 3.088-3.86 7.527-10.036 6.948-20.458-1.158-16.019-14.475-27.599-31.459-27.599-17.177 0-30.494 11.58-31.459 27.6-.772 10.421 3.474 16.983 6.37 20.65-.194 0-.58.193-.773.193-.772.386-1.35.965-1.93 1.737-.772-.386-1.737-.772-2.895-.772-.579 0-.965 0-1.544.193-3.474-2.123-9.65-7.913-13.896-13.317 2.316-2.702 9.843-13.317 3.667-34.74-4.825-16.405-11.773-21.23-16.984-22.58 1.351-7.142 4.053-14.862 5.79-18.915h9.65c.58 0 .965-.386.965-.965v-1.158l-7.334-15.826v-4.246l30.108 14.861h-1.158c-11.192 0-20.265 9.073-20.265 20.265s9.073 20.265 20.265 20.265 20.265-9.073 20.265-20.265c0-5.018-1.93-9.65-5.018-13.124l5.79 2.895c.193 0 .193.193.386.193s.386 0 .386-.193l5.983-3.28a20.265 20.265 0 1 0 15.054-6.756c-.965 0-1.93 0-2.895.193l24.897-13.124v6.176c0 .193.193.58.386.772s11.58 11.387 15.633 29.915c-5.21.58-13.51 4.825-18.142 23.74-5.404 21.615 2.702 32.037 5.211 34.546-3.474 4.825-11 11.966-14.86 14.475m-34.934-76.235c0 10.036-8.299 18.335-18.335 18.335s-18.335-8.299-18.335-18.335 8.3-18.335 18.335-18.335c10.23 0 18.335 8.3 18.335 18.335m24.897-18.335c10.036 0 18.335 8.3 18.335 18.335s-8.299 18.335-18.335 18.335-18.335-8.299-18.335-18.335 8.106-18.335 18.335-18.335m46.706 56.163c-6.562 19.493-17.949 22.581-20.265 22.967-1.737-1.737-10.036-11.58-4.825-33.003 4.632-19.107 12.931-22.195 17.37-22.388 1.544 0 2.702.386 2.895.386.772.193 1.351.58 2.123.772 7.141 4.246 8.106 15.054 2.702 31.266"/><path fill="#ffff01" d="M1006.901 616.787c2.895 0 5.404-2.509 5.404-5.404s-2.509-5.404-5.404-5.404-5.404 2.51-5.404 5.404c0 3.088 2.51 5.404 5.404 5.404m0-8.878c1.93 0 3.474 1.544 3.474 3.474s-1.544 3.474-3.474 3.474-3.474-1.544-3.474-3.474 1.544-3.474 3.474-3.474m32.617 8.878c2.895 0 5.404-2.509 5.404-5.404s-2.509-5.404-5.404-5.404-5.404 2.51-5.404 5.404c0 3.088 2.316 5.404 5.404 5.404m0-8.878c1.93 0 3.474 1.544 3.474 3.474s-1.544 3.474-3.474 3.474-3.474-1.544-3.474-3.474 1.544-3.474 3.474-3.474m-23.334 49.002a.933.933 0 0 0-1.35 0l-4.826 4.44-5.21-4.44a.933.933 0 0 0-1.352 0 .933.933 0 0 0 0 1.351l5.79 5.018c.193.193.386.193.58.193s.385 0 .578-.193l5.597-5.018c.58-.386.58-.965.193-1.35m7.893 6.368c.193.193.386.193.58.193s.385 0 .578-.193l5.597-5.018a.933.933 0 0 0 0-1.35.933.933 0 0 0-1.35 0l-4.826 4.438-5.21-4.439a.933.933 0 0 0-1.352 0 .933.933 0 0 0 0 1.351Zm7.142 11.407a.933.933 0 0 0-1.35 0l-4.826 4.44-5.21-4.44a.933.933 0 0 0-1.352 0 .933.933 0 0 0 0 1.351l5.79 5.018c.193.193.386.193.58.193s.385 0 .578-.193l5.597-5.018c.386-.386.386-.965.193-1.35m-7.528-7.335a.933.933 0 0 0 0-1.35.933.933 0 0 0-1.35 0l-4.826 4.438-5.21-4.439a.933.933 0 0 0-1.352 0 .933.933 0 0 0 0 1.351l5.79 5.018c.193.193.386.193.58.193s.385 0 .578-.193Zm1.738-1.35a.933.933 0 0 0 0 1.35l5.79 5.018c.193.193.386.193.58.193s.385 0 .578-.193l5.597-5.018a.933.933 0 0 0 0-1.35.933.933 0 0 0-1.35 0l-4.826 4.438-5.21-4.439c-.194-.386-.773-.386-1.159 0m13.316-2.722c.193.193.386.193.58.193s.385 0 .578-.193l5.597-5.018a.933.933 0 0 0 0-1.35.933.933 0 0 0-1.35 0l-4.826 4.438-5.21-4.439a.933.933 0 0 0-1.352 0 .933.933 0 0 0 0 1.351Zm-15.247-38.773c-4.053 0-6.176 4.44-6.369 4.632-.193.386-.193.772.193.965l5.983 7.334c.193.193.386.386.772.386s.58-.193.772-.386l5.404-7.72q.29-.579 0-1.158c-.193-.386-2.895-4.053-6.755-4.053m.386 10.615-4.632-5.79c.58-.965 2.123-2.895 4.246-2.895s3.86 1.737 4.825 2.51Zm-68.9-6.176c0-.579-.58-.965-1.159-.772-.579 0-.965.58-.772 1.158 0 .193 2.51 20.844 13.896 35.898.193.193.58.386.772.386s.386 0 .58-.193c.385-.386.578-.965.192-1.35-11-14.669-13.51-34.934-13.51-35.127m135.294-6.369c-.579 0-.965.58-.772 1.158 0 .193 2.895 23.16-13.51 40.337a.933.933 0 0 0 0 1.351c.193.193.386.193.58.193s.578-.193.771-.386c16.984-17.949 13.896-41.688 13.896-41.88 0-.58-.386-.966-.965-.773"/></g><path fill="transparent" stroke="transparent" stroke-width="2.373" d="M330.696 187.5h1338.608v1125H330.696z"/></g></svg>